<svg width="49" height="49" viewBox="0 0 49 49" fill="none" xmlns="http://www.w3.org/2000/svg">
<g id="24 / symbols / at-sign">
<path id="icon" fill-rule="evenodd" clip-rule="evenodd" d="M27.135 19.5728H29.137V24.5728C29.137 27.0437 29.3266 27.5728 30.138 27.5728C31.4436 27.5728 32.1399 26.9559 32.1399 24.5728C32.1399 19.2834 29.4844 16.5728 24.1321 16.5728C20.6647 16.5732 17.5914 18.803 16.5183 22.097C15.4453 25.391 16.6162 29.0007 19.4192 31.0398C22.2223 33.079 26.0206 33.0842 28.8292 31.0528L30.0033 32.6728C26.4924 35.212 21.7446 35.2055 18.2408 32.6566C14.737 30.1077 13.2733 25.5956 14.6146 21.4781C15.956 17.3606 19.7975 14.5733 24.132 14.5728C30.5998 14.5728 34.1419 18.1884 34.1419 24.5728C34.1419 28.1176 32.4992 29.5728 30.138 29.5728C28.7928 29.5728 28.0229 29.1395 27.6003 28.1776C26.7007 29.0416 25.4784 29.5728 24.132 29.5728C21.3679 29.5728 19.1271 27.3342 19.1271 24.5728C19.1271 21.8113 21.3679 19.5728 24.132 19.5728C25.2587 19.5728 26.2985 19.9447 27.135 20.5724V19.5728ZM27.135 24.5728C27.135 26.2296 25.7905 27.5728 24.132 27.5728C22.4735 27.5728 21.129 26.2296 21.129 24.5728C21.129 22.9159 22.4735 21.5728 24.132 21.5728C25.7905 21.5728 27.135 22.9159 27.135 24.5728Z" fill="#831742"/>
<circle id="icono1" cx="24.4496" cy="24.5729" r="22.671" stroke="#831742" stroke-width="2"/>
</g>
</svg>
