<svg width="48" height="49" viewBox="0 0 48 49" fill="none" xmlns="http://www.w3.org/2000/svg">
<g id="24 / symbols / instagram">
<path id="icon" fill-rule="evenodd" clip-rule="evenodd" d="M28.2067 14.5728H20.1988C16.8818 14.5728 14.1929 17.259 14.1929 20.5728V28.5728C14.1929 31.8865 16.8818 34.5728 20.1988 34.5728H28.2067C31.5237 34.5728 34.2127 31.8865 34.2127 28.5728V20.5728C34.2127 17.259 31.5237 14.5728 28.2067 14.5728ZM16.1949 20.5728C16.1949 18.3636 17.9875 16.5728 20.1988 16.5728H28.2067C30.4181 16.5728 32.2107 18.3636 32.2107 20.5728V28.5728C32.2107 30.7819 30.4181 32.5728 28.2067 32.5728H20.1988C17.9875 32.5728 16.1949 30.7819 16.1949 28.5728V20.5728ZM24.2028 29.5728C21.4386 29.5728 19.1978 27.3342 19.1978 24.5728C19.1978 21.8113 21.4386 19.5728 24.2028 19.5728C26.9669 19.5728 29.2077 21.8113 29.2077 24.5728C29.2077 27.3342 26.9669 29.5728 24.2028 29.5728ZM24.2028 27.5728C25.8613 27.5728 27.2057 26.2296 27.2057 24.5728C27.2057 22.9159 25.8613 21.5728 24.2028 21.5728C22.5443 21.5728 21.1998 22.9159 21.1998 24.5728C21.1998 26.2296 22.5443 27.5728 24.2028 27.5728ZM30.2087 19.5728C30.2087 20.125 29.7606 20.5728 29.2077 20.5728C28.6549 20.5728 28.2067 20.125 28.2067 19.5728C28.2067 19.0205 28.6549 18.5728 29.2077 18.5728C29.7606 18.5728 30.2087 19.0205 30.2087 19.5728Z" fill="#831742"/>
<circle id="icono 2" cx="24.1909" cy="24.5729" r="22.671" stroke="#831742" stroke-width="2"/>
</g>
</svg>
