<svg width="20" height="20" viewBox="0 0 20 20" fill="none" xmlns="http://www.w3.org/2000/svg">
<g id="24 / security / lock">
<path id="icon" fill-rule="evenodd" clip-rule="evenodd" d="M5.83337 5.83329V8.33329H5.00004C4.10975 8.33329 3.33337 8.98027 3.33337 9.86107V16.8055C3.33337 17.6863 4.10975 18.3333 5.00004 18.3333H15C15.8903 18.3333 16.6667 17.6863 16.6667 16.8055V9.86107C16.6667 8.98027 15.8903 8.33329 15 8.33329H14.1667V5.83329C14.1667 3.53211 12.3012 1.66663 10 1.66663C7.69885 1.66663 5.83337 3.53211 5.83337 5.83329ZM12.5 5.83329V8.33329H7.50004V5.83329C7.50004 4.45258 8.61933 3.33329 10 3.33329C11.3808 3.33329 12.5 4.45258 12.5 5.83329ZM5.00004 16.6666V9.99996H15V16.6666H5.00004ZM10.8334 13.3333C10.8334 13.7935 10.4603 14.1666 10 14.1666C9.5398 14.1666 9.16671 13.7935 9.16671 13.3333C9.16671 12.8731 9.5398 12.5 10 12.5C10.4603 12.5 10.8334 12.8731 10.8334 13.3333Z" fill="#831742"/>
</g>
</svg>
